<svg xmlns="http://www.w3.org/2000/svg" x="0px" y="0px" width="100" height="100" viewBox="0,0,256,256">
<g fill="none" fill-rule="nonzero" stroke="none" stroke-width="1" stroke-linecap="butt" stroke-linejoin="miter" stroke-miterlimit="10" stroke-dasharray="" stroke-dashoffset="0" font-family="none" font-weight="none" font-size="none" text-anchor="none" style="mix-blend-mode: normal"><g transform="scale(2.56,2.56)"><circle cx="50" cy="50" r="37" fill-opacity="0" fill="#e6edb7"></circle><circle cx="13" cy="29" r="2" fill="#9f8066"></circle><circle cx="77" cy="13" r="1" fill="#f1bc19"></circle><circle cx="83" cy="15" r="4" fill="#f1bc19"></circle><circle cx="87" cy="24" r="2" fill="#9f8066"></circle><circle cx="81" cy="76" r="2" fill="#fbcd59"></circle><circle cx="18" cy="72" r="4" fill="#fbcd59"></circle><circle cx="25" cy="87" r="2" fill="#9f8066"></circle><circle cx="20.5" cy="62.5" r="2.5" fill="#ffffff"></circle><circle cx="26" cy="73" r="1" fill="#f1bc19"></circle><circle cx="80" cy="34" r="1" fill="#ffffff"></circle><path d="M53.355,91.5h-7l-2.191,-7.5h11.329z" fill="#605e60"></path><path d="M58.781,22.468c0,0 2.711,2.995 5.121,7.114l6.443,3.13c0,0.001 -4.885,-9.542 -11.564,-10.244z" fill="#48bed8"></path><path d="M41.874,29.872c0,0 3.474,-9.479 7.853,-9.096c0,0 5.791,2.029 7.131,7.573c0,0.001 -10.508,-0.655 -14.984,1.523z" fill="#48bed8"></path><path d="M29.291,34.979c0,0 2.715,-9.887 13.469,-13.688c0,0 -6.274,6.346 -7.35,10.471z" fill="#48bed8"></path><path d="M60.074,67.261l1.368,2.338l-4.273,5.202z" fill="#ef9922"></path><path d="M65.56,51.176l-5.486,15.89l1.455,1.87l7.096,-12.755z" fill="#88ae45"></path><path d="M42.472,56.529c0,0 8.745,-8.371 16.628,-9.727c0,0 -0.958,14.111 -3.256,16.655c0,0 -8.904,-6.537 -13.372,-6.928z" fill="#88ae45"></path><path d="M48.891,80.569l-7.664,-24.771l15.152,7.659l-5.719,17.543z" fill="#ef9922"></path><path d="M36.44,64.823l1.481,-2.904l5.7,13.751c0,0 -6.67,-7.205 -7.181,-10.847z" fill="#ef9922"></path><path d="M28.39,46.538c0,0 5.114,-0.724 5.792,1.239l3.062,13.529l-1.618,3.473c0,-0.001 -6.381,-11.869 -7.236,-18.241z" fill="#ee3e54"></path><path d="M66.333,47.365l-0.627,2.741l3.075,5.692l2.673,-8.851z" fill="#00a698"></path><path d="M40.605,37.939c0,0 -0.742,11.471 1.592,18.242c0,0 10.702,-8.492 17.293,-10.319l-0.495,-2.209c0,0 -9.48,-6.022 -18.39,-5.714z" fill="#00a698"></path><path d="M28.43,38.585l5.418,-0.562v8.779l-5.458,-0.946z" fill="#00a698"></path><path d="M64.302,30.276c0,0 3.601,10.071 1.465,17.089l6.181,-0.563c0,0 0.967,-14.08 -3.146,-14.701z" fill="#88ae45"></path><path d="M28.77,35.687l6.188,-2.91l-1.291,4.755l-5.403,0.491z" fill="#88ae45"></path><path d="M40.162,37.864l1.667,-7.588c0,0 13.39,-3.595 15.362,-0.962c0,0 3.04,5.046 1.804,14.339c0,0 -9.219,-5.853 -18.833,-5.789z" fill="#88ae45"></path><path d="M53.355,92.2h-7c-0.302,0 -0.568,-0.193 -0.664,-0.479l-2.5,-7.5c-0.071,-0.214 -0.035,-0.448 0.097,-0.631c0.131,-0.183 0.343,-0.291 0.567,-0.291h12c0.225,0 0.437,0.108 0.567,0.291c0.132,0.183 0.168,0.417 0.097,0.631l-2.5,7.5c-0.095,0.286 -0.362,0.479 -0.664,0.479zM46.86,90.8h5.99l2.033,-6.1h-10.056z" fill="#494444"></path><path d="M43.621,81.557c-0.186,0 -0.37,-0.073 -0.508,-0.219c-0.916,-0.966 -22.392,-23.879 -19.901,-42.81c0.855,-6.502 4.481,-11.759 10.777,-15.625c0.329,-0.203 0.761,-0.099 0.963,0.23c0.202,0.329 0.099,0.761 -0.23,0.963c-5.918,3.634 -9.323,8.551 -10.121,14.614c-2.405,18.275 19.309,41.433 19.528,41.664c0.267,0.28 0.254,0.724 -0.026,0.989c-0.136,0.13 -0.309,0.194 -0.482,0.194z" fill="#494444"></path><path d="M56.379,81.557c-0.173,0 -0.346,-0.063 -0.481,-0.192c-0.28,-0.266 -0.293,-0.709 -0.026,-0.989c0.22,-0.231 21.934,-23.398 19.528,-41.666c-0.798,-6.062 -4.203,-10.979 -10.121,-14.612c-0.329,-0.202 -0.433,-0.634 -0.23,-0.963c0.201,-0.329 0.634,-0.434 0.963,-0.23c6.296,3.866 9.922,9.123 10.777,15.625c2.49,18.931 -18.985,41.844 -19.901,42.81c-0.139,0.143 -0.324,0.217 -0.509,0.217z" fill="#494444"></path><path d="M56.87,63.896c5.285,-20.228 3.34,-31.237 0.287,-37.119c-2.994,-5.768 -7.115,-6.907 -7.289,-6.953c-0.057,-0.016 -0.118,-0.024 -0.178,-0.024h-0.335c-0.062,0 -0.123,0.009 -0.184,0.024c-0.163,0.045 -4.04,1.15 -6.883,6.68c-3.774,7.342 -5.779,22.798 6.105,54.74c0.103,0.274 0.364,0.456 0.656,0.456h1.609c0.292,0 0.554,-0.182 0.656,-0.456c2.363,-6.351 4.159,-12.039 5.502,-17.151c0.034,-0.063 0.052,-0.129 0.054,-0.197zM55.729,62.751c-5.059,-3.747 -10.655,-5.646 -12.65,-6.244c4.364,-4.117 8.75,-6.815 15.477,-9.546c-0.383,4.461 -1.266,9.683 -2.827,15.79zM58.776,42.934c-4.714,-3.074 -10.715,-4.926 -17.878,-5.504c0.219,-2.688 0.667,-4.942 1.25,-6.832c5.155,-1.424 10.021,-1.977 14.48,-1.644c1.332,3.204 2.281,7.706 2.148,13.98zM49.464,21.2h0.121c0.544,0.182 3.892,1.468 6.371,6.3c0.07,0.136 0.138,0.281 0.207,0.424c-4.237,-0.249 -8.812,0.268 -13.636,1.539c0.299,-0.82 0.624,-1.563 0.965,-2.234c2.335,-4.604 5.452,-5.849 5.972,-6.029zM40.83,38.428c7.248,0.585 13.266,2.492 17.908,5.675c-0.024,0.568 -0.056,1.15 -0.098,1.747c-7.135,2.854 -11.712,5.643 -16.283,9.965c-1.417,-7.153 -1.789,-12.849 -1.527,-17.387zM50.173,80.3h-0.635c-3.281,-8.873 -5.47,-16.426 -6.845,-22.861c1.868,0.561 7.712,2.524 12.762,6.36c-1.299,4.921 -3.025,10.394 -5.282,16.501z" fill="#494444"></path><path d="M71.345,33.709c-4.068,-11.166 -16.017,-13.782 -16.524,-13.889c-0.032,-0.006 -0.062,0.002 -0.094,0c-0.047,-0.003 -0.093,-0.007 -0.139,0c-0.045,0.006 -0.086,0.019 -0.128,0.033c-0.042,0.014 -0.081,0.027 -0.12,0.049c-0.042,0.023 -0.078,0.053 -0.114,0.085c-0.031,0.027 -0.061,0.052 -0.087,0.084c-0.031,0.039 -0.054,0.082 -0.077,0.128c-0.013,0.026 -0.035,0.046 -0.045,0.075c-0.005,0.015 -0.002,0.03 -0.006,0.044c-0.005,0.016 -0.016,0.028 -0.019,0.044c-0.007,0.032 0.001,0.063 -0.001,0.095c-0.003,0.047 -0.007,0.091 -0.001,0.137c0.006,0.045 0.019,0.086 0.033,0.129c0.014,0.043 0.028,0.083 0.05,0.122c0.022,0.039 0.05,0.072 0.079,0.106c0.029,0.034 0.057,0.067 0.093,0.095c0.036,0.029 0.077,0.05 0.119,0.071c0.028,0.014 0.049,0.037 0.08,0.048c0.062,0.022 6.247,2.3 9.298,10.315c2.974,7.814 3.479,22.665 -11,49.038c-0.187,0.339 -0.062,0.765 0.276,0.95c0.106,0.059 0.223,0.087 0.336,0.087c0.247,0 0.487,-0.131 0.614,-0.363c0.025,-0.046 0.048,-0.089 0.073,-0.135c0.022,-0.022 0.052,-0.032 0.072,-0.057c15.624,-19.875 21.421,-35.787 17.232,-47.291zM61.435,68.277c-0.193,-0.368 -0.393,-0.745 -0.655,-1.118c2.456,-5.911 4.026,-11.083 4.95,-15.607c0.853,1.458 1.567,3.038 2.128,4.717c-1.586,3.772 -3.722,7.783 -6.411,12.031c-0.004,-0.007 -0.008,-0.015 -0.012,-0.023zM68.425,54.872c-0.652,-1.711 -1.458,-3.318 -2.413,-4.788c0.137,-0.766 0.256,-1.513 0.356,-2.24l4.295,-0.457c-0.47,2.375 -1.218,4.87 -2.238,7.485zM60.153,23.379c2.949,1.565 6.406,4.126 8.661,8.161c-1.387,-0.794 -2.851,-1.461 -4.374,-1.999c-1.24,-2.704 -2.793,-4.701 -4.287,-6.162zM65.032,30.936c-0.017,-0.044 -0.036,-0.083 -0.054,-0.126c1.644,0.648 3.207,1.458 4.67,2.42c0.136,0.317 0.265,0.641 0.386,0.973c1.303,3.587 1.568,7.648 0.814,12.161l-4.352,0.463c0.828,-7.054 -0.057,-12.218 -1.464,-15.891zM60.299,68.288c0.084,0.15 0.168,0.299 0.25,0.455c0.091,0.172 0.183,0.346 0.282,0.522c-0.926,1.43 -1.914,2.887 -2.963,4.369c0.889,-1.846 1.694,-3.624 2.431,-5.346z" fill="#494444"></path><path d="M55.355,30.75c-0.009,0 -0.019,0 -0.027,-0.002c-0.726,-0.08 -1.552,-0.112 -2.463,-0.096c-0.002,0 -0.004,0 -0.005,0c-0.136,0 -0.247,-0.109 -0.25,-0.245c-0.003,-0.139 0.107,-0.252 0.245,-0.255c0.933,-0.016 1.78,0.017 2.527,0.1c0.138,0.015 0.236,0.139 0.221,0.275c-0.013,0.128 -0.122,0.223 -0.248,0.223z" fill="#494444"></path><path d="M44.355,31.75c-0.114,0 -0.217,-0.078 -0.243,-0.193c-0.031,-0.135 0.053,-0.27 0.187,-0.3c0.038,-0.009 3.766,-0.862 7.494,-1.065c0.005,0 0.01,0 0.014,0c0.132,0 0.242,0.104 0.25,0.236c0.007,0.138 -0.099,0.256 -0.236,0.264c-3.685,0.2 -7.372,1.044 -7.408,1.052c-0.02,0.004 -0.039,0.006 -0.058,0.006z" fill="#494444"></path><path d="M52.861,68.055c-0.021,0 -0.042,-0.003 -0.062,-0.008c-0.134,-0.035 -0.214,-0.172 -0.18,-0.305c0.241,-0.927 0.405,-1.692 0.489,-2.277c0.019,-0.138 0.148,-0.234 0.282,-0.212c0.137,0.02 0.231,0.146 0.212,0.282c-0.087,0.612 -0.25,1.375 -0.499,2.332c-0.029,0.113 -0.13,0.188 -0.242,0.188z" fill="#494444"></path><path d="M49.855,77.25c-0.029,0 -0.059,-0.005 -0.088,-0.016c-0.129,-0.049 -0.194,-0.192 -0.146,-0.322c0.016,-0.042 1.594,-4.261 2.637,-7.861c0.038,-0.132 0.172,-0.214 0.31,-0.171c0.133,0.038 0.209,0.177 0.171,0.31c-1.048,3.62 -2.633,7.855 -2.648,7.898c-0.039,0.1 -0.134,0.162 -0.236,0.162z" fill="#494444"></path><path d="M69.355,45.75c-0.019,0 -0.037,-0.002 -0.057,-0.007c-0.134,-0.03 -0.218,-0.165 -0.187,-0.3c0.832,-3.608 0.566,-6.752 0.197,-8.754c-0.024,-0.136 0.065,-0.266 0.201,-0.291c0.127,-0.029 0.265,0.065 0.291,0.201c0.378,2.048 0.649,5.265 -0.203,8.957c-0.025,0.116 -0.127,0.194 -0.242,0.194z" fill="#494444"></path><path d="M69.348,35.91c-0.113,0 -0.216,-0.077 -0.243,-0.192c-0.244,-1.023 -0.479,-1.619 -0.481,-1.625c-0.051,-0.129 0.012,-0.273 0.14,-0.325c0.125,-0.05 0.274,0.012 0.325,0.14c0.01,0.025 0.25,0.632 0.503,1.695c0.032,0.134 -0.051,0.269 -0.186,0.301c-0.02,0.004 -0.04,0.006 -0.058,0.006z" fill="#494444"></path><path d="M47.258,80.52c-14.479,-26.373 -13.974,-41.224 -11,-49.038c3.051,-8.016 9.235,-10.293 9.298,-10.315c0.03,-0.011 0.052,-0.033 0.08,-0.048c0.042,-0.022 0.083,-0.042 0.119,-0.071c0.035,-0.028 0.063,-0.061 0.092,-0.095c0.029,-0.034 0.057,-0.067 0.079,-0.107c0.022,-0.039 0.035,-0.079 0.05,-0.122c0.014,-0.043 0.028,-0.084 0.034,-0.129c0.006,-0.045 0.002,-0.09 -0.001,-0.137c-0.002,-0.032 0.006,-0.063 -0.001,-0.095c-0.003,-0.016 -0.015,-0.029 -0.019,-0.044c-0.004,-0.015 -0.001,-0.03 -0.006,-0.044c-0.01,-0.029 -0.032,-0.049 -0.046,-0.076c-0.022,-0.044 -0.044,-0.087 -0.074,-0.125c-0.029,-0.036 -0.061,-0.064 -0.096,-0.093c-0.033,-0.028 -0.064,-0.054 -0.101,-0.075c-0.044,-0.026 -0.09,-0.041 -0.139,-0.056c-0.036,-0.011 -0.07,-0.023 -0.108,-0.028c-0.051,-0.007 -0.101,-0.004 -0.153,0c-0.029,0.002 -0.057,-0.006 -0.086,0c-0.507,0.106 -12.456,2.723 -16.523,13.889c-4.189,11.504 1.607,27.416 17.231,47.292c0.02,0.025 0.049,0.036 0.072,0.057c0.025,0.046 0.048,0.089 0.073,0.135c0.127,0.232 0.366,0.363 0.614,0.363c0.113,0 0.229,-0.028 0.336,-0.087c0.337,-0.187 0.461,-0.613 0.275,-0.951zM29.5,35.69c0.731,-0.405 2.39,-1.281 4.669,-2.269c-0.31,1.172 -0.564,2.461 -0.737,3.873c-1.963,0.088 -3.487,0.246 -4.373,0.359c0.116,-0.668 0.264,-1.322 0.441,-1.963zM28.906,38.683c0.778,-0.105 2.345,-0.284 4.421,-0.382c-0.212,2.333 -0.205,4.986 0.115,7.989c-2.042,-0.426 -3.607,-0.587 -4.405,-0.644c-0.356,-2.46 -0.4,-4.782 -0.131,-6.963zM33.564,47.34c0.519,4.065 1.606,8.748 3.479,14.123c-0.532,0.951 -0.873,1.816 -1.084,2.509c-3.587,-6.349 -5.842,-12.126 -6.756,-17.308c0.87,0.072 2.418,0.253 4.361,0.676zM39.847,23.379c-1.741,1.702 -3.566,4.13 -4.879,7.556c-0.151,0.395 -0.294,0.812 -0.432,1.242c-2.01,0.84 -3.582,1.612 -4.611,2.15c0.015,-0.041 0.026,-0.084 0.041,-0.125c2.038,-5.608 6.329,-8.937 9.881,-10.823zM36.675,65.217c0.096,-0.499 0.328,-1.392 0.828,-2.466c1.224,3.36 2.75,6.981 4.629,10.882c-2.055,-2.905 -3.874,-5.711 -5.457,-8.416z" fill="#494444"></path></g></g>
</svg>